<svg width="116" height="27" viewBox="0 0 116 27" fill="none" xmlns="http://www.w3.org/2000/svg">
<g clip-path="url(#clip0_3626_23800)">
<path d="M4.9545 8.70111L7.3676 1.17603C7.42258 1.02755 7.30651 0.867188 7.14156 0.867188H0.665894C0.299347 0.867188 0 1.15821 0 1.51457V8.54075C0 8.74268 0.171055 8.90898 0.378766 8.91492H4.59406C4.74068 8.92086 4.89952 8.83771 4.94839 8.70111H4.9545Z" fill="url(#paint0_linear_3626_23800)"/>
<path d="M26.0737 18.1683H22.0417C21.8951 18.1683 21.7607 18.2574 21.7118 18.394L19.2987 25.9072C19.2437 26.0557 19.3598 26.216 19.5248 26.216H25.7927C26.147 26.216 26.4342 25.9369 26.4342 25.5924V18.5068C26.4342 18.3168 26.2753 18.1624 26.0798 18.1624L26.0737 18.1683Z" fill="url(#paint1_linear_3626_23800)"/>
<path d="M16.2014 0.914654C16.1647 0.8612 16.0364 0.86714 16.0364 0.86714H9.98841C9.98841 0.86714 9.87234 0.8612 9.79903 0.920593C9.73183 0.979986 9.68296 1.09877 9.68296 1.09877L3.78766 19.5046C3.73267 19.6709 3.82431 19.8075 3.99537 19.8075H9.89678C10.0678 19.8016 10.2511 19.665 10.3061 19.4987L16.1953 1.09877C16.1953 1.09877 16.2442 0.974047 16.2075 0.914654H16.2014Z" fill="url(#paint2_linear_3626_23800)"/>
<path d="M25.0046 0.920561C24.9741 0.873047 24.8275 0.873047 24.8275 0.873047H18.7794C18.7794 0.873047 18.6511 0.878986 18.5962 0.920561C18.5412 0.962136 18.474 1.09874 18.474 1.09874L10.5016 25.9903C10.5016 25.9903 10.4771 26.0913 10.5199 26.1625C10.5688 26.2279 10.6604 26.2219 10.6604 26.2219H16.4702C16.8367 26.2397 16.9223 26.1685 16.9834 26.0734L24.9863 1.09874C24.9863 1.09874 25.0352 0.968075 25.0046 0.920561Z" fill="url(#paint3_linear_3626_23800)"/>
<path d="M47.6084 6.63411H50.9684V26.9999H47.6084V19.1719C46.2766 20.9359 44.4927 21.8149 42.2568 21.8268C40.1064 21.8268 38.3103 21.0903 36.893 19.5936C35.4634 18.1029 34.7426 16.2558 34.7426 14.0404C34.7426 11.825 35.4573 9.98981 36.893 8.49905C38.3103 7.02016 40.1064 6.28369 42.2568 6.28369C44.4072 6.28369 46.2766 7.16271 47.6084 8.92667V6.64005V6.63411ZM46.2644 17.3486C47.1563 16.4696 47.6084 15.3589 47.6084 14.0404C47.6084 12.7219 47.1563 11.6231 46.2644 10.7441C45.3724 9.86508 44.2484 9.41964 42.9166 9.41964C41.5848 9.41964 40.4302 9.85914 39.5382 10.7441C38.6341 11.6231 38.1759 12.7219 38.1759 14.0404C38.1759 15.3589 38.628 16.4696 39.5382 17.3486C40.4302 18.2276 41.5542 18.6671 42.9166 18.6671C44.2789 18.6671 45.3724 18.2276 46.2644 17.3486Z" fill="white"/>
<path d="M67.8296 8.49908C69.2591 9.98985 69.98 11.837 69.98 14.0404C69.98 16.2439 69.2652 18.1029 67.8296 19.5937C66.3817 21.0844 64.5978 21.8268 62.4658 21.8268C60.2176 21.8268 58.4154 20.9478 57.0897 19.172V21.4764H53.7297V0.510742H57.0897V8.92077C58.4215 7.15681 60.2176 6.27779 62.4658 6.27779C64.5978 6.27779 66.3817 7.01426 67.8296 8.49314V8.49908ZM61.806 18.6731C63.1378 18.6731 64.2618 18.2336 65.166 17.3546C66.0579 16.4755 66.51 15.3649 66.51 14.0464C66.51 12.7279 66.0579 11.6291 65.166 10.7501C64.2618 9.87106 63.1317 9.42561 61.806 9.42561C60.4803 9.42561 59.3501 9.86512 58.446 10.7501C57.5418 11.6291 57.0836 12.7279 57.0836 14.0464C57.0836 15.3649 57.5357 16.4755 58.446 17.3546C59.3562 18.2336 60.4803 18.6731 61.806 18.6731Z" fill="white"/>
<path d="M82.3448 6.63411H85.6926V21.4705H82.3448V19.4927C81.1902 21.0428 79.553 21.8209 77.4637 21.8209C75.7103 21.8209 74.3052 21.2923 73.2423 20.241C72.1732 19.1898 71.6356 17.794 71.6356 16.0776V6.62817H74.9834V15.1273C74.9834 16.1904 75.3071 17.0576 75.9608 17.699C76.6023 18.3404 77.4637 18.6671 78.545 18.6671C79.6874 18.6671 80.6037 18.3404 81.3063 17.6752C81.9905 17.0219 82.3448 16.1548 82.3448 15.062V6.63411Z" fill="white"/>
<path d="M88.6189 3.522C88.1974 3.12406 87.9897 2.64298 87.9897 2.06093C87.9897 1.47888 88.1913 0.968104 88.6006 0.58205C89.0099 0.195996 89.5231 0 90.1218 0C91.3497 0 92.2722 0.855257 92.2722 2.06093C92.2722 2.64298 92.0706 3.12406 91.6612 3.522C91.2519 3.91993 90.7388 4.11593 90.1279 4.11593C89.517 4.11593 89.0343 3.91993 88.625 3.522H88.6189ZM88.4417 21.4705V6.63418H91.8018V21.4705H88.4417Z" fill="white"/>
<path d="M94.5387 21.4705V0.510742H97.8987V21.4705H94.5387Z" fill="white"/>
<path d="M112.64 0.510742H116V21.4705H112.64V19.166C111.308 20.93 109.524 21.809 107.288 21.8209C105.138 21.8209 103.342 21.0844 101.925 19.5877C100.495 18.097 99.7742 16.2499 99.7742 14.0345C99.7742 11.8191 100.489 9.98391 101.925 8.49314C103.342 7.01426 105.138 6.27779 107.288 6.27779C109.439 6.27779 111.308 7.15681 112.64 8.92077V0.510742ZM111.296 17.3486C112.188 16.4696 112.64 15.359 112.64 14.0404C112.64 12.7219 112.188 11.6231 111.296 10.7441C110.404 9.86512 109.28 9.41967 107.948 9.41967C106.616 9.41967 105.462 9.85918 104.57 10.7441C103.666 11.6231 103.207 12.7219 103.207 14.0404C103.207 15.359 103.66 16.4696 104.57 17.3486C105.462 18.2276 106.586 18.6671 107.948 18.6671C109.311 18.6671 110.404 18.2276 111.296 17.3486Z" fill="white"/>
</g>
<defs>
<linearGradient id="paint0_linear_3626_23800" x1="0.329893" y1="1.75808" x2="28.5253" y2="29.2491" gradientUnits="userSpaceOnUse">
<stop stop-color="#DAFCFB"/>
<stop offset="1" stop-color="#F6DDA3"/>
</linearGradient>
<linearGradient id="paint1_linear_3626_23800" x1="0.482622" y1="1.60362" x2="28.6717" y2="29.1004" gradientUnits="userSpaceOnUse">
<stop stop-color="#DAFCFB"/>
<stop offset="1" stop-color="#F6DDA3"/>
</linearGradient>
<linearGradient id="paint2_linear_3626_23800" x1="0.513166" y1="1.57391" x2="28.7024" y2="29.0648" gradientUnits="userSpaceOnUse">
<stop stop-color="#DAFCFB"/>
<stop offset="1" stop-color="#F6DDA3"/>
</linearGradient>
<linearGradient id="paint3_linear_3626_23800" x1="2.53529" y1="-0.498929" x2="30.7246" y2="26.9919" gradientUnits="userSpaceOnUse">
<stop stop-color="#DAFCFB"/>
<stop offset="1" stop-color="#F6DDA3"/>
</linearGradient>
<clipPath id="clip0_3626_23800">
<rect width="116" height="27" fill="white"/>
</clipPath>
</defs>
</svg>
